0
SECTION
2
HEADER
9
$INSUNITS
70
4
9
$ACADVER
1
AC1014
9
$HANDSEED
5
FFFF
0
ENDSEC
0
SECTION
2
TABLES
0
TABLE
2
VPORT
5
8
100
AcDbSymbolTable
0
ENDTAB
0
TABLE
2
LTYPE
5
5
100
AcDbSymbolTable
0
LTYPE
5
14
100
AcDbSymbolTableRecord
100
AcDbLinetypeTableRecord
2
BYBLOCK
70
0
0
LTYPE
5
15
100
AcDbSymbolTableRecord
100
AcDbLinetypeTableRecord
2
BYLAYER
70
0
0
ENDTAB
0
TABLE
2
LAYER
5
2
100
AcDbSymbolTable
70
2
0
LAYER
5
50
100
AcDbSymbolTableRecord
100
AcDbLayerTableRecord
2
0
70
0
6
CONTINUOUS
0
ENDTAB
0
TABLE
2
STYLE
5
3
100
AcDbSymbolTable
70
1
0
STYLE
5
11
100
AcDbSymbolTableRecord
100
AcDbTextStyleTableRecord
2
STANDARD
70
0
0
ENDTAB
0
TABLE
2
VIEW
5
6
100
AcDbSymbolTable
70
0
0
ENDTAB
0
TABLE
2
UCS
5
7
100
AcDbSymbolTable
70
0
0
ENDTAB
0
TABLE
2
APPID
5
9
100
AcDbSymbolTable
70
2
0
APPID
5
12
100
AcDbSymbolTableRecord
100
AcDbRegAppTableRecord
2
ACAD
70
0
0
ENDTAB
0
TABLE
2
DIMSTYLE
5
A
100
AcDbSymbolTable
70
1
0
ENDTAB
0
TABLE
2
BLOCK_RECORD
5
1
100
AcDbSymbolTable
70
1
0
BLOCK_RECORD
5
1F
100
AcDbSymbolTableRecord
100
AcDbBlockTableRecord
2
*MODEL_SPACE
0
BLOCK_RECORD
5
1B
100
AcDbSymbolTableRecord
100
AcDbBlockTableRecord
2
*PAPER_SPACE
0
ENDTAB
0
ENDSEC
0
SECTION
2
BLOCKS
0
BLOCK
5
20
100
AcDbEntity
100
AcDbBlockBegin
2
*MODEL_SPACE
0
ENDBLK
5
21
100
AcDbEntity
100
AcDbBlockEnd
0
BLOCK
5
1C
100
AcDbEntity
100
AcDbBlockBegin
2
*PAPER_SPACE
0
ENDBLK
5
1D
100
AcDbEntity
100
AcDbBlockEnd
0
ENDSEC
0
SECTION
2
ENTITIES
0
LWPOLYLINE
5
100
100
AcDbEntity
8
0
100
AcDbPolyline
90
18
70
1
43
0.0
10
30.000000000000007
20
51.96152422706632
10
60
20
0
10
55.000000149011605
20
-8.6602537797487322
10
29.052559316174509
20
6.3205081698716725
10
9.0525590181512783
20
-28.320508497697226
10
34.999999850988374
20
-43.30127044731762
10
29.999999999999972
20
-51.961524227066334
10
-30.000000000000028
20
-51.961524227066313
10
-34.999999850988416
20
-43.301270447317606
10
-9.052559018151296
20
-28.320508497697226
10
-29.052559316174509
20
6.3205081698716903
10
-55.000000149011619
20
-8.6602537797486825
10
-60.000000000000007
20
1.7763568394002505e-14
10
-29.999999999999993
20
51.961524227066327
10
-20.00000029802322
20
51.961524227066327
10
-20.000000298023224
20
22.000000327825546
10
20.000000298023224
20
22.000000327825546
10
20.000000298023227
20
51.96152422706632
0
CIRCLE
5
101
100
AcDbEntity
8
0
100
AcDbCircle
10
0
20
0
30
0
40
6.0000000894069672
210
0
220
0
230
1
0
LWPOLYLINE
5
102
100
AcDbEntity
8
0
100
AcDbPolyline
90
4
70
1
43
0.0
10
10.000000149011612
20
6.0000000894069672
10
6.0000000894069672
20
6.0000000894069672
10
6.0000000894069672
20
16.000000238418579
10
10.000000149011612
20
16.000000238418579
0
CIRCLE
5
103
100
AcDbEntity
8
0
100
AcDbCircle
10
-27.499999910593033
20
11.000000163912773
30
0
40
1.5
210
0
220
0
230
1
0
LWPOLYLINE
5
104
100
AcDbEntity
8
0
100
AcDbPolyline
90
4
70
1
43
0.0
10
-16.856406711731047
20
-2.8038476190739479
10
-18.85640674153337
20
0.66025404768294327
10
-10.196152574641141
20
5.6602541221887472
10
-8.1961525448388208
20
2.1961524554318554
0
CIRCLE
5
105
100
AcDbEntity
8
0
100
AcDbCircle
10
4.2237203717150571
20
-29.31569860859975
30
0
40
1.5
210
0
220
0
230
1
0
LWPOLYLINE
5
106
100
AcDbEntity
8
0
100
AcDbPolyline
90
4
70
1
43
0.0
10
10.856406622324076
20
-13.196152619344627
10
8.8564065925217523
20
-16.660254286101516
10
0.19615242562952662
20
-11.66025421159571
10
2.1961524554318501
20
-8.1961525448388191
0
CIRCLE
5
107
100
AcDbEntity
8
0
100
AcDbCircle
10
23.276279538877969
20
18.315698444686962
30
0
40
1.5
210
0
220
0
230
1
0
ENDSEC
0
SECTION
2
OBJECTS
0
DICTIONARY
5
C
100
AcDbDictionary
3
ACAD_GROUP
350
D
3
ACAD_MLINESTYLE
350
17
0
DICTIONARY
5
D
100
AcDbDictionary
0
DICTIONARY
5
1A
330
C
100
AcDbDictionary
0
DICTIONARY
5
17
100
AcDbDictionary
0
ENDSEC
0
EOF
